%TF.GenerationSoftware,KiCad,Pcbnew,9.0.4*%
%TF.CreationDate,2025-09-19T11:32:10-07:00*%
%TF.ProjectId,WindController,57696e64-436f-46e7-9472-6f6c6c65722e,rev?*%
%TF.SameCoordinates,Original*%
%TF.FileFunction,Copper,L2,Bot*%
%TF.FilePolarity,Positive*%
%FSLAX46Y46*%
G04 Gerber Fmt 4.6, Leading zero omitted, Abs format (unit mm)*
G04 Created by KiCad (PCBNEW 9.0.4) date 2025-09-19 11:32:10*
%MOMM*%
%LPD*%
G01*
G04 APERTURE LIST*
%TA.AperFunction,ComponentPad*%
%ADD10C,1.600000*%
%TD*%
%TA.AperFunction,ComponentPad*%
%ADD11R,1.600000X1.600000*%
%TD*%
%TA.AperFunction,ComponentPad*%
%ADD12O,1.600000X1.600000*%
%TD*%
%TA.AperFunction,ComponentPad*%
%ADD13R,1.500000X1.500000*%
%TD*%
%TA.AperFunction,ComponentPad*%
%ADD14C,1.500000*%
%TD*%
%TA.AperFunction,Conductor*%
%ADD15C,0.200000*%
%TD*%
G04 APERTURE END LIST*
D10*
%TO.P,R2,1*%
%TO.N,Net-(A1-D3)*%
X104750000Y-137560000D03*
%TO.P,R2,2*%
%TO.N,Net-(J2-Pad7)*%
X104750000Y-129940000D03*
%TD*%
D11*
%TO.P,A1,1,D1/TX*%
%TO.N,unconnected-(A1-D1{slash}TX-Pad1)*%
X112500000Y-133000000D03*
D12*
%TO.P,A1,2,D0/RX*%
%TO.N,unconnected-(A1-D0{slash}RX-Pad2)*%
X112500000Y-135540000D03*
%TO.P,A1,3,~{RESET}*%
%TO.N,unconnected-(A1-~{RESET}-Pad3)*%
X112500000Y-138080000D03*
%TO.P,A1,4,GND*%
%TO.N,unconnected-(A1-GND-Pad4)*%
X112500000Y-140620000D03*
%TO.P,A1,5,D2*%
%TO.N,Net-(A1-D2)*%
X112500000Y-143160000D03*
%TO.P,A1,6,D3*%
%TO.N,Net-(A1-D3)*%
X112500000Y-145700000D03*
%TO.P,A1,7,D4*%
%TO.N,unconnected-(A1-D4-Pad7)*%
X112500000Y-148240000D03*
%TO.P,A1,8,D5*%
%TO.N,unconnected-(A1-D5-Pad8)*%
X112500000Y-150780000D03*
%TO.P,A1,9,D6*%
%TO.N,Net-(A1-D6)*%
X112500000Y-153320000D03*
%TO.P,A1,10,D7*%
%TO.N,Net-(A1-D7)*%
X112500000Y-155860000D03*
%TO.P,A1,11,D8*%
%TO.N,unconnected-(A1-D8-Pad11)*%
X112500000Y-158400000D03*
%TO.P,A1,12,D9*%
%TO.N,unconnected-(A1-D9-Pad12)*%
X112500000Y-160940000D03*
%TO.P,A1,13,D10*%
%TO.N,unconnected-(A1-D10-Pad13)*%
X112500000Y-163480000D03*
%TO.P,A1,14,D11*%
%TO.N,unconnected-(A1-D11-Pad14)*%
X112500000Y-166020000D03*
%TO.P,A1,15,D12*%
%TO.N,unconnected-(A1-D12-Pad15)*%
X112500000Y-168560000D03*
%TO.P,A1,16,D13*%
%TO.N,unconnected-(A1-D13-Pad16)*%
X127740000Y-168560000D03*
%TO.P,A1,17,3V3*%
%TO.N,unconnected-(A1-3V3-Pad17)*%
X127740000Y-166020000D03*
%TO.P,A1,18,AREF*%
%TO.N,unconnected-(A1-AREF-Pad18)*%
X127740000Y-163480000D03*
%TO.P,A1,19,A0*%
%TO.N,unconnected-(A1-A0-Pad19)*%
X127740000Y-160940000D03*
%TO.P,A1,20,A1*%
%TO.N,unconnected-(A1-A1-Pad20)*%
X127740000Y-158400000D03*
%TO.P,A1,21,A2*%
%TO.N,unconnected-(A1-A2-Pad21)*%
X127740000Y-155860000D03*
%TO.P,A1,22,A3*%
%TO.N,unconnected-(A1-A3-Pad22)*%
X127740000Y-153320000D03*
%TO.P,A1,23,A4*%
%TO.N,unconnected-(A1-A4-Pad23)*%
X127740000Y-150780000D03*
%TO.P,A1,24,A5*%
%TO.N,unconnected-(A1-A5-Pad24)*%
X127740000Y-148240000D03*
%TO.P,A1,25,A6*%
%TO.N,unconnected-(A1-A6-Pad25)*%
X127740000Y-145700000D03*
%TO.P,A1,26,A7*%
%TO.N,unconnected-(A1-A7-Pad26)*%
X127740000Y-143160000D03*
%TO.P,A1,27,+5V*%
%TO.N,unconnected-(A1-+5V-Pad27)*%
X127740000Y-140620000D03*
%TO.P,A1,28,~{RESET}*%
%TO.N,unconnected-(A1-~{RESET}-Pad28)*%
X127740000Y-138080000D03*
%TO.P,A1,29,GND*%
%TO.N,GND*%
X127740000Y-135540000D03*
%TO.P,A1,30,VIN*%
%TO.N,unconnected-(A1-VIN-Pad30)*%
X127740000Y-133000000D03*
%TD*%
D10*
%TO.P,R1,1*%
%TO.N,Net-(J1-Pad7)*%
X135000000Y-130000000D03*
%TO.P,R1,2*%
%TO.N,Net-(A1-D2)*%
X135000000Y-137620000D03*
%TD*%
D13*
%TO.P,J2,1*%
%TO.N,unconnected-(J2-Pad1)*%
X115000000Y-112000000D03*
D14*
%TO.P,J2,2*%
%TO.N,GND*%
X113730000Y-114540000D03*
%TO.P,J2,3*%
%TO.N,unconnected-(J2-Pad3)*%
X112460000Y-112000000D03*
%TO.P,J2,4*%
%TO.N,unconnected-(J2-Pad4)*%
X111190000Y-114540000D03*
%TO.P,J2,5*%
%TO.N,Net-(A1-D7)*%
X109920000Y-112000000D03*
%TO.P,J2,6*%
%TO.N,unconnected-(J2-Pad6)*%
X108650000Y-114540000D03*
%TO.P,J2,7*%
%TO.N,Net-(J2-Pad7)*%
X107380000Y-112000000D03*
%TO.P,J2,8*%
%TO.N,unconnected-(J2-Pad8)*%
X106110000Y-114540000D03*
%TD*%
D13*
%TO.P,J1,1*%
%TO.N,unconnected-(J1-Pad1)*%
X134000000Y-112000000D03*
D14*
%TO.P,J1,2*%
%TO.N,GND*%
X132730000Y-114540000D03*
%TO.P,J1,3*%
%TO.N,unconnected-(J1-Pad3)*%
X131460000Y-112000000D03*
%TO.P,J1,4*%
%TO.N,unconnected-(J1-Pad4)*%
X130190000Y-114540000D03*
%TO.P,J1,5*%
%TO.N,Net-(A1-D6)*%
X128920000Y-112000000D03*
%TO.P,J1,6*%
%TO.N,unconnected-(J1-Pad6)*%
X127650000Y-114540000D03*
%TO.P,J1,7*%
%TO.N,Net-(J1-Pad7)*%
X126380000Y-112000000D03*
%TO.P,J1,8*%
%TO.N,unconnected-(J1-Pad8)*%
X125110000Y-114540000D03*
%TD*%
D15*
%TO.N,GND*%
X132730000Y-130550000D02*
X127740000Y-135540000D01*
X132730000Y-114540000D02*
X132730000Y-130550000D01*
X130409000Y-112435339D02*
X132513661Y-114540000D01*
X130409000Y-111564661D02*
X130409000Y-112435339D01*
X132513661Y-114540000D02*
X132730000Y-114540000D01*
X125944661Y-110949000D02*
X129793339Y-110949000D01*
X129793339Y-110949000D02*
X130409000Y-111564661D01*
X122353661Y-114540000D02*
X125944661Y-110949000D01*
X113730000Y-114540000D02*
X122353661Y-114540000D01*
%TO.N,Net-(A1-D6)*%
X128920000Y-130262950D02*
X113601000Y-145581950D01*
X113601000Y-145581950D02*
X113601000Y-152219000D01*
X113601000Y-152219000D02*
X112500000Y-153320000D01*
X128920000Y-112000000D02*
X128920000Y-130262950D01*
%TO.N,Net-(A1-D7)*%
X109920000Y-153280000D02*
X112500000Y-155860000D01*
X109920000Y-112000000D02*
X109920000Y-153280000D01*
%TD*%
M02*
