%TF.GenerationSoftware,KiCad,Pcbnew,9.0.4*%
%TF.CreationDate,2025-09-19T11:32:10-07:00*%
%TF.ProjectId,WindController,57696e64-436f-46e7-9472-6f6c6c65722e,rev?*%
%TF.SameCoordinates,Original*%
%TF.FileFunction,Legend,Top*%
%TF.FilePolarity,Positive*%
%FSLAX46Y46*%
G04 Gerber Fmt 4.6, Leading zero omitted, Abs format (unit mm)*
G04 Created by KiCad (PCBNEW 9.0.4) date 2025-09-19 11:32:10*
%MOMM*%
%LPD*%
G01*
G04 APERTURE LIST*
%ADD10C,0.150000*%
%ADD11C,0.120000*%
G04 APERTURE END LIST*
D10*
X102834819Y-133916666D02*
X102358628Y-134249999D01*
X102834819Y-134488094D02*
X101834819Y-134488094D01*
X101834819Y-134488094D02*
X101834819Y-134107142D01*
X101834819Y-134107142D02*
X101882438Y-134011904D01*
X101882438Y-134011904D02*
X101930057Y-133964285D01*
X101930057Y-133964285D02*
X102025295Y-133916666D01*
X102025295Y-133916666D02*
X102168152Y-133916666D01*
X102168152Y-133916666D02*
X102263390Y-133964285D01*
X102263390Y-133964285D02*
X102311009Y-134011904D01*
X102311009Y-134011904D02*
X102358628Y-134107142D01*
X102358628Y-134107142D02*
X102358628Y-134488094D01*
X101930057Y-133535713D02*
X101882438Y-133488094D01*
X101882438Y-133488094D02*
X101834819Y-133392856D01*
X101834819Y-133392856D02*
X101834819Y-133154761D01*
X101834819Y-133154761D02*
X101882438Y-133059523D01*
X101882438Y-133059523D02*
X101930057Y-133011904D01*
X101930057Y-133011904D02*
X102025295Y-132964285D01*
X102025295Y-132964285D02*
X102120533Y-132964285D01*
X102120533Y-132964285D02*
X102263390Y-133011904D01*
X102263390Y-133011904D02*
X102834819Y-133583332D01*
X102834819Y-133583332D02*
X102834819Y-132964285D01*
X119405714Y-128089104D02*
X119881904Y-128089104D01*
X119310476Y-128374819D02*
X119643809Y-127374819D01*
X119643809Y-127374819D02*
X119977142Y-128374819D01*
X120834285Y-128374819D02*
X120262857Y-128374819D01*
X120548571Y-128374819D02*
X120548571Y-127374819D01*
X120548571Y-127374819D02*
X120453333Y-127517676D01*
X120453333Y-127517676D02*
X120358095Y-127612914D01*
X120358095Y-127612914D02*
X120262857Y-127660533D01*
X118858095Y-168014819D02*
X118858095Y-168824342D01*
X118858095Y-168824342D02*
X118905714Y-168919580D01*
X118905714Y-168919580D02*
X118953333Y-168967200D01*
X118953333Y-168967200D02*
X119048571Y-169014819D01*
X119048571Y-169014819D02*
X119239047Y-169014819D01*
X119239047Y-169014819D02*
X119334285Y-168967200D01*
X119334285Y-168967200D02*
X119381904Y-168919580D01*
X119381904Y-168919580D02*
X119429523Y-168824342D01*
X119429523Y-168824342D02*
X119429523Y-168014819D01*
X119858095Y-168967200D02*
X120000952Y-169014819D01*
X120000952Y-169014819D02*
X120239047Y-169014819D01*
X120239047Y-169014819D02*
X120334285Y-168967200D01*
X120334285Y-168967200D02*
X120381904Y-168919580D01*
X120381904Y-168919580D02*
X120429523Y-168824342D01*
X120429523Y-168824342D02*
X120429523Y-168729104D01*
X120429523Y-168729104D02*
X120381904Y-168633866D01*
X120381904Y-168633866D02*
X120334285Y-168586247D01*
X120334285Y-168586247D02*
X120239047Y-168538628D01*
X120239047Y-168538628D02*
X120048571Y-168491009D01*
X120048571Y-168491009D02*
X119953333Y-168443390D01*
X119953333Y-168443390D02*
X119905714Y-168395771D01*
X119905714Y-168395771D02*
X119858095Y-168300533D01*
X119858095Y-168300533D02*
X119858095Y-168205295D01*
X119858095Y-168205295D02*
X119905714Y-168110057D01*
X119905714Y-168110057D02*
X119953333Y-168062438D01*
X119953333Y-168062438D02*
X120048571Y-168014819D01*
X120048571Y-168014819D02*
X120286666Y-168014819D01*
X120286666Y-168014819D02*
X120429523Y-168062438D01*
X121191428Y-168491009D02*
X121334285Y-168538628D01*
X121334285Y-168538628D02*
X121381904Y-168586247D01*
X121381904Y-168586247D02*
X121429523Y-168681485D01*
X121429523Y-168681485D02*
X121429523Y-168824342D01*
X121429523Y-168824342D02*
X121381904Y-168919580D01*
X121381904Y-168919580D02*
X121334285Y-168967200D01*
X121334285Y-168967200D02*
X121239047Y-169014819D01*
X121239047Y-169014819D02*
X120858095Y-169014819D01*
X120858095Y-169014819D02*
X120858095Y-168014819D01*
X120858095Y-168014819D02*
X121191428Y-168014819D01*
X121191428Y-168014819D02*
X121286666Y-168062438D01*
X121286666Y-168062438D02*
X121334285Y-168110057D01*
X121334285Y-168110057D02*
X121381904Y-168205295D01*
X121381904Y-168205295D02*
X121381904Y-168300533D01*
X121381904Y-168300533D02*
X121334285Y-168395771D01*
X121334285Y-168395771D02*
X121286666Y-168443390D01*
X121286666Y-168443390D02*
X121191428Y-168491009D01*
X121191428Y-168491009D02*
X120858095Y-168491009D01*
X137824819Y-133976666D02*
X137348628Y-134309999D01*
X137824819Y-134548094D02*
X136824819Y-134548094D01*
X136824819Y-134548094D02*
X136824819Y-134167142D01*
X136824819Y-134167142D02*
X136872438Y-134071904D01*
X136872438Y-134071904D02*
X136920057Y-134024285D01*
X136920057Y-134024285D02*
X137015295Y-133976666D01*
X137015295Y-133976666D02*
X137158152Y-133976666D01*
X137158152Y-133976666D02*
X137253390Y-134024285D01*
X137253390Y-134024285D02*
X137301009Y-134071904D01*
X137301009Y-134071904D02*
X137348628Y-134167142D01*
X137348628Y-134167142D02*
X137348628Y-134548094D01*
X137824819Y-133024285D02*
X137824819Y-133595713D01*
X137824819Y-133309999D02*
X136824819Y-133309999D01*
X136824819Y-133309999D02*
X136967676Y-133405237D01*
X136967676Y-133405237D02*
X137062914Y-133500475D01*
X137062914Y-133500475D02*
X137110533Y-133595713D01*
X110221666Y-116454819D02*
X110221666Y-117169104D01*
X110221666Y-117169104D02*
X110174047Y-117311961D01*
X110174047Y-117311961D02*
X110078809Y-117407200D01*
X110078809Y-117407200D02*
X109935952Y-117454819D01*
X109935952Y-117454819D02*
X109840714Y-117454819D01*
X110650238Y-116550057D02*
X110697857Y-116502438D01*
X110697857Y-116502438D02*
X110793095Y-116454819D01*
X110793095Y-116454819D02*
X111031190Y-116454819D01*
X111031190Y-116454819D02*
X111126428Y-116502438D01*
X111126428Y-116502438D02*
X111174047Y-116550057D01*
X111174047Y-116550057D02*
X111221666Y-116645295D01*
X111221666Y-116645295D02*
X111221666Y-116740533D01*
X111221666Y-116740533D02*
X111174047Y-116883390D01*
X111174047Y-116883390D02*
X110602619Y-117454819D01*
X110602619Y-117454819D02*
X111221666Y-117454819D01*
X129221666Y-116454819D02*
X129221666Y-117169104D01*
X129221666Y-117169104D02*
X129174047Y-117311961D01*
X129174047Y-117311961D02*
X129078809Y-117407200D01*
X129078809Y-117407200D02*
X128935952Y-117454819D01*
X128935952Y-117454819D02*
X128840714Y-117454819D01*
X130221666Y-117454819D02*
X129650238Y-117454819D01*
X129935952Y-117454819D02*
X129935952Y-116454819D01*
X129935952Y-116454819D02*
X129840714Y-116597676D01*
X129840714Y-116597676D02*
X129745476Y-116692914D01*
X129745476Y-116692914D02*
X129650238Y-116740533D01*
D11*
%TO.C,R2*%
X106120000Y-137020000D02*
X106120000Y-130480000D01*
X106120000Y-130480000D02*
X105790000Y-130480000D01*
X105790000Y-137020000D02*
X106120000Y-137020000D01*
X103710000Y-137020000D02*
X103380000Y-137020000D01*
X103380000Y-137020000D02*
X103380000Y-130480000D01*
X103380000Y-130480000D02*
X103710000Y-130480000D01*
%TO.C,A1*%
X111100000Y-129060000D02*
X111100000Y-131730000D01*
X111100000Y-134270000D02*
X111100000Y-172500000D01*
X111100000Y-172500000D02*
X116180000Y-172500000D01*
X113770000Y-131730000D02*
X111100000Y-131730000D01*
X113770000Y-134270000D02*
X111100000Y-134270000D01*
X113770000Y-134270000D02*
X113770000Y-131730000D01*
X113770000Y-134270000D02*
X113770000Y-169830000D01*
X113770000Y-169830000D02*
X111100000Y-169830000D01*
X116180000Y-164620000D02*
X124060000Y-164620000D01*
X116180000Y-175040000D02*
X116180000Y-164620000D01*
X124060000Y-164620000D02*
X124060000Y-175040000D01*
X124060000Y-175040000D02*
X116180000Y-175040000D01*
X126470000Y-131730000D02*
X126470000Y-169830000D01*
X126470000Y-131730000D02*
X129140000Y-131730000D01*
X126470000Y-169830000D02*
X129140000Y-169830000D01*
X129140000Y-129060000D02*
X111100000Y-129060000D01*
X129140000Y-172500000D02*
X124060000Y-172500000D01*
X129140000Y-172500000D02*
X129140000Y-129060000D01*
%TO.C,R1*%
X133630000Y-130540000D02*
X133630000Y-137080000D01*
X133630000Y-137080000D02*
X133960000Y-137080000D01*
X133960000Y-130540000D02*
X133630000Y-130540000D01*
X136040000Y-130540000D02*
X136370000Y-130540000D01*
X136370000Y-130540000D02*
X136370000Y-137080000D01*
X136370000Y-137080000D02*
X136040000Y-137080000D01*
%TO.C,J2*%
X102795000Y-115880000D02*
X102795000Y-97920000D01*
X102795000Y-115880000D02*
X118315000Y-115880000D01*
X118315000Y-97920000D02*
X102795000Y-97920000D01*
X118315000Y-115880000D02*
X118315000Y-97920000D01*
X118500000Y-112000000D02*
X119000000Y-112500000D01*
X119000000Y-111500000D02*
X118500000Y-112000000D01*
X119000000Y-112500000D02*
X119000000Y-111500000D01*
%TO.C,J1*%
X121795000Y-115880000D02*
X121795000Y-97920000D01*
X121795000Y-115880000D02*
X137315000Y-115880000D01*
X137315000Y-97920000D02*
X121795000Y-97920000D01*
X137315000Y-115880000D02*
X137315000Y-97920000D01*
X137500000Y-112000000D02*
X138000000Y-112500000D01*
X138000000Y-111500000D02*
X137500000Y-112000000D01*
X138000000Y-112500000D02*
X138000000Y-111500000D01*
%TD*%
M02*
