M48
; DRILL file {KiCad 9.0.4} date 2025-09-19T11:32:16-0700
; FORMAT={-:-/ absolute / metric / decimal}
; #@! TF.CreationDate,2025-09-19T11:32:16-07:00
; #@! TF.GenerationSoftware,Kicad,Pcbnew,9.0.4
; #@! TF.FileFunction,Plated,1,2,PTH
FMAT,2
METRIC
; #@! TA.AperFunction,Plated,PTH,ComponentDrill
T1C0.760
; #@! TA.AperFunction,Plated,PTH,ComponentDrill
T2C0.800
; #@! TA.AperFunction,Plated,PTH,ComponentDrill
T3C1.000
%
G90
G05
T1
X106.11Y-114.54
X107.38Y-112.0
X108.65Y-114.54
X109.92Y-112.0
X111.19Y-114.54
X112.46Y-112.0
X113.73Y-114.54
X115.0Y-112.0
X125.11Y-114.54
X126.38Y-112.0
X127.65Y-114.54
X128.92Y-112.0
X130.19Y-114.54
X131.46Y-112.0
X132.73Y-114.54
X134.0Y-112.0
T2
X104.75Y-129.94
X104.75Y-137.56
X135.0Y-130.0
X135.0Y-137.62
T3
X112.5Y-133.0
X112.5Y-135.54
X112.5Y-138.08
X112.5Y-140.62
X112.5Y-143.16
X112.5Y-145.7
X112.5Y-148.24
X112.5Y-150.78
X112.5Y-153.32
X112.5Y-155.86
X112.5Y-158.4
X112.5Y-160.94
X112.5Y-163.48
X112.5Y-166.02
X112.5Y-168.56
X127.74Y-133.0
X127.74Y-135.54
X127.74Y-138.08
X127.74Y-140.62
X127.74Y-143.16
X127.74Y-145.7
X127.74Y-148.24
X127.74Y-150.78
X127.74Y-153.32
X127.74Y-155.86
X127.74Y-158.4
X127.74Y-160.94
X127.74Y-163.48
X127.74Y-166.02
X127.74Y-168.56
M30
